<svg width="172" height="172" xmlns="http://www.w3.org/2000/svg" xmlns:xlink="http://www.w3.org/1999/xlink" overflow="hidden"><defs><clipPath id="clip0"><rect x="1079" y="255" width="172" height="172"/></clipPath></defs><g clip-path="url(#clip0)" transform="translate(-1079 -255)"><path d="M1165 427C1117.64 427 1079 388.362 1079 341 1079 293.638 1117.64 255 1165 255 1212.99 255 1251 293.638 1251 341 1251 388.362 1212.99 427 1165 427ZM1165 262.478C1122 262.478 1086.48 297.377 1086.48 341 1086.48 384 1122 419.522 1165 419.522 1208.62 419.522 1243.52 384 1243.52 341 1243.52 297.377 1208.62 262.478 1165 262.478Z" fill="#A100FF" fill-rule="evenodd"/><path d="M1187.29 398C1142.71 398 1142.71 398 1142.71 398 1140.86 398 1139 396 1139 394 1139 392 1140.86 390 1142.71 390 1187.29 390 1187.29 390 1187.29 390 1189.76 390 1191 392 1191 394 1191 396 1189.76 398 1187.29 398Z" fill="#A100FF" fill-rule="evenodd"/><path d="M1165.17 394C1163.25 394 1161.33 392.132 1161.33 390.263 1161.33 330.474 1161.33 330.474 1161.33 330.474 1149.83 330.474 1149.83 330.474 1149.83 330.474 1147.92 330.474 1146 328.605 1146 326.737 1146 324.869 1147.92 323 1149.83 323 1165.17 323 1165.17 323 1165.17 323 1167.72 323 1169 324.869 1169 326.737 1169 390.263 1169 390.263 1169 390.263 1169 392.132 1167.72 394 1165.17 394Z" fill="#A100FF" fill-rule="evenodd"/><path d="M1154 296.5C1154 292.358 1157.36 289 1161.5 289 1165.64 289 1169 292.358 1169 296.5 1169 300.642 1165.64 304 1161.5 304 1157.36 304 1154 300.642 1154 296.5Z" fill="#A100FF" fill-rule="evenodd"/></g></svg>