<svg width="172" height="172" xmlns="http://www.w3.org/2000/svg" xmlns:xlink="http://www.w3.org/1999/xlink" overflow="hidden"><defs><clipPath id="clip0"><rect x="802" y="490" width="172" height="172"/></clipPath></defs><g clip-path="url(#clip0)" transform="translate(-802 -490)"><path d="M888 662C840.638 662 802 623.362 802 576 802 528.638 840.638 490 888 490 935.985 490 974 528.638 974 576 974 623.362 935.985 662 888 662ZM888 497.478C845 497.478 809.478 532.377 809.478 576 809.478 619 845 654.522 888 654.522 931.623 654.522 966.522 619 966.522 576 966.522 532.377 931.623 497.478 888 497.478Z" fill="#FFFFFF" fill-rule="evenodd"/><path d="M910.286 632C865.714 632 865.714 632 865.714 632 863.857 632 862 630.25 862 628.5 862 626.75 863.857 625 865.714 625 910.286 625 910.286 625 910.286 625 912.762 625 914 626.75 914 628.5 914 630.25 912.762 632 910.286 632Z" fill="#FFFFFF" fill-rule="evenodd"/><path d="M888.167 629C886.25 629 884.333 627.105 884.333 625.211 884.333 564.579 884.333 564.579 884.333 564.579 872.833 564.579 872.833 564.579 872.833 564.579 870.917 564.579 869 562.684 869 560.789 869 558.895 870.917 557 872.833 557 888.167 557 888.167 557 888.167 557 890.722 557 892 558.895 892 560.789 892 625.211 892 625.211 892 625.211 892 627.105 890.722 629 888.167 629Z" fill="#FFFFFF" fill-rule="evenodd"/><path d="M877 531.5C877 527.358 880.358 524 884.5 524 888.642 524 892 527.358 892 531.5 892 535.642 888.642 539 884.5 539 880.358 539 877 535.642 877 531.5Z" fill="#FFFFFF" fill-rule="evenodd"/></g></svg>