<svg width="172" height="172" xmlns="http://www.w3.org/2000/svg" xmlns:xlink="http://www.w3.org/1999/xlink" overflow="hidden"><defs><clipPath id="clip0"><rect x="1079" y="490" width="172" height="172"/></clipPath></defs><g clip-path="url(#clip0)" transform="translate(-1079 -490)"><path d="M1165 662C1117.64 662 1079 623.362 1079 576 1079 528.638 1117.64 490 1165 490 1212.99 490 1251 528.638 1251 576 1251 623.362 1212.99 662 1165 662ZM1165 497.478C1122 497.478 1086.48 532.377 1086.48 576 1086.48 619 1122 654.522 1165 654.522 1208.62 654.522 1243.52 619 1243.52 576 1243.52 532.377 1208.62 497.478 1165 497.478Z" fill-rule="evenodd"/><path d="M1187.29 632C1142.71 632 1142.71 632 1142.71 632 1140.86 632 1139 630.25 1139 628.5 1139 626.75 1140.86 625 1142.71 625 1187.29 625 1187.29 625 1187.29 625 1189.76 625 1191 626.75 1191 628.5 1191 630.25 1189.76 632 1187.29 632Z" fill-rule="evenodd"/><path d="M1165.17 629C1163.25 629 1161.33 627.105 1161.33 625.211 1161.33 564.579 1161.33 564.579 1161.33 564.579 1149.83 564.579 1149.83 564.579 1149.83 564.579 1147.92 564.579 1146 562.684 1146 560.789 1146 558.895 1147.92 557 1149.83 557 1165.17 557 1165.17 557 1165.17 557 1167.72 557 1169 558.895 1169 560.789 1169 625.211 1169 625.211 1169 625.211 1169 627.105 1167.72 629 1165.17 629Z" fill-rule="evenodd"/><path d="M1154 531.5C1154 527.358 1157.36 524 1161.5 524 1165.64 524 1169 527.358 1169 531.5 1169 535.642 1165.64 539 1161.5 539 1157.36 539 1154 535.642 1154 531.5Z" fill-rule="evenodd"/></g></svg>