<svg width="121" height="177" xmlns="http://www.w3.org/2000/svg" xmlns:xlink="http://www.w3.org/1999/xlink" overflow="hidden"><defs><clipPath id="clip0"><rect x="2001" y="480" width="121" height="177"/></clipPath></defs><g clip-path="url(#clip0)" transform="translate(-2001 -480)"><path d="M2101.83 657C2101.22 657 2100.61 656.385 2100 655.771 2002.22 570.958 2002.22 570.958 2002.22 570.958 2001.61 570.344 2001 569.729 2001 568.5 2001 567.271 2001.61 566.042 2002.22 565.427 2100 480.614 2100 480.614 2100 480.614 2100.61 480 2101.22 480 2102.44 480 2103.67 480 2104.28 480.614 2104.89 481.229 2121.39 500.281 2121.39 500.281 2121.39 500.281 2122 500.896 2122 502.125 2122 502.739 2122 503.969 2121.39 504.583 2120.78 505.198 2046.83 568.5 2046.83 568.5 2046.83 568.5 2120.78 631.187 2120.78 631.187 2120.78 631.187 2121.39 631.802 2122 633.031 2122 633.646 2122 634.875 2122 636.104 2121.39 636.719 2104.89 655.771 2104.89 655.771 2104.89 655.771 2104.28 656.385 2103.67 657 2102.44 657 2102.44 657 2102.44 657 2101.83 657ZM2010.17 568.5C2101.83 647.781 2101.83 647.781 2101.83 647.781 2113.44 634.875 2113.44 634.875 2113.44 634.875 2038.89 570.958 2038.89 570.958 2038.89 570.958 2038.28 570.344 2037.67 569.729 2037.67 568.5 2037.67 567.271 2038.28 566.042 2038.89 565.427 2113.44 502.125 2113.44 502.125 2113.44 502.125 2101.83 488.604 2101.83 488.604 2101.83 488.604L2010.17 568.5Z" fill="#FFFFFF" fill-rule="evenodd"/></g></svg>